<?xml version="1.0" encoding="utf-8"?>
<svg viewBox="56.7346 220.7196 54.099 49.9944" width="54.099" height="49.9944" xmlns="http://www.w3.org/2000/svg">
  <path fill="#009df8" d="M 105.435 256.293 C 103.602 257.394 101.548 257.972 99.435 258.234 C 98.763 254.695 97.352 251.007 96.165 248.269 C 97.079 247.07 97.958 245.839 98.794 244.582 C 99.317 243.793 99.864 242.953 100.399 242.082 C 102.395 243.097 104.263 244.281 105.931 245.648 C 110.056 249.031 110.298 253.375 105.435 256.293 Z M 96.642 266.777 C 92.95 269.808 87.063 267.496 83.708 265.148 C 83.091 264.718 82.505 264.253 81.935 263.769 C 83.575 262.218 85.102 260.613 86.474 259.175 C 89.708 259.652 92.86 259.898 95.751 259.898 C 96.669 259.898 97.634 259.855 98.61 259.761 C 99.017 262.496 98.681 265.105 96.642 266.777 Z M 66.649 266.957 C 65.134 263.761 66.806 258.753 68.931 254.261 C 70.485 254.949 72.11 255.574 73.77 256.136 C 75.395 258.902 77.278 261.535 79.45 263.726 C 74.063 268.199 68.626 271.121 66.649 266.957 Z M 63.192 249.296 C 59.731 246.988 56.204 243.453 60.731 240.211 C 62.282 239.097 64.126 238.347 66.079 237.847 C 66.899 240.593 67.813 243.011 68.364 244.48 C 68.903 245.925 69.513 247.464 70.2 249.043 C 69.845 249.714 69.497 250.382 69.161 251.046 C 68.993 251.378 68.782 251.804 68.54 252.296 C 66.673 251.414 64.88 250.421 63.192 249.296 Z M 69.27 222.761 C 74.966 222.761 79.864 226.109 83.942 230.73 C 82.313 232.195 80.77 233.789 79.321 235.476 C 77.372 235.414 75.438 235.445 73.54 235.57 C 71.638 235.695 69.481 235.816 67.337 236.125 C 65.638 230.507 64.149 222.761 69.27 222.761 Z M 95.372 246.507 C 94.157 243.875 92.856 241.257 91.384 238.746 C 93.852 239.382 96.274 240.195 98.556 241.203 C 97.505 243.128 96.384 244.957 95.372 246.507 Z M 84.935 231.902 C 86.106 233.332 87.2 234.855 88.224 236.425 C 85.938 236 83.634 235.718 81.333 235.57 C 81.388 235.515 81.438 235.457 81.493 235.402 C 82.548 234.308 83.7 233.097 84.935 231.902 Z M 71.282 247.074 C 70.493 245.109 69.77 243.148 69.087 241.257 C 68.821 240.523 68.31 239.152 67.763 237.476 C 70.571 236.957 73.509 236.855 76.083 236.855 C 76.759 236.855 77.446 236.867 78.142 236.89 C 75.548 240.101 73.263 243.582 71.282 247.074 Z M 72.571 253.988 C 71.579 253.621 70.606 253.222 69.645 252.8 C 70.048 252.003 70.454 251.23 70.852 250.5 C 71.384 251.656 71.954 252.828 72.571 253.988 Z M 74.895 254.793 C 73.778 252.789 72.794 250.695 71.907 248.586 C 72.329 247.824 72.716 247.136 73.036 246.55 C 74.942 243.058 77.349 239.914 80.017 236.98 C 83.067 237.168 86.247 237.586 89.38 238.269 C 91.372 241.562 93.052 244.953 94.403 247.953 C 93.454 249.339 92.681 250.363 92.274 250.832 C 91.474 251.746 89.153 254.418 86.196 257.433 C 82.407 256.836 78.579 255.984 74.895 254.793 Z M 76.138 256.89 C 78.966 257.734 81.872 258.406 84.735 258.898 C 83.458 260.16 82.099 261.441 80.716 262.648 C 78.974 260.945 77.466 258.992 76.138 256.89 Z M 95.649 250.816 C 96.466 252.753 97.7 255.543 98.341 258.343 C 96.454 258.48 94.54 258.398 92.708 258.234 C 91.13 258.093 89.524 257.914 87.907 257.687 C 90.431 255.105 92.876 252.425 95.13 249.597 C 95.31 250.015 95.485 250.421 95.649 250.816 Z M 97.794 224.976 C 105.157 224.976 102.935 232.746 99.298 239.808 C 96.399 238.523 93.341 237.539 90.212 236.836 C 88.958 234.871 87.583 232.992 86.036 231.246 C 85.977 231.175 85.915 231.105 85.849 231.035 C 89.298 227.843 93.345 224.976 97.794 224.976 Z M 105.517 243.234 C 104.142 242.304 102.704 241.468 101.212 240.718 C 103.102 237.425 104.669 233.726 104.427 230.113 C 103.981 223.468 97.575 222.394 92.403 224.925 C 89.704 226.242 87.188 227.953 84.849 229.941 C 80.852 225.695 73.427 219.066 67.954 221.097 C 63.118 222.894 63.974 230.183 65.669 236.41 C 63.052 236.933 60.556 237.82 58.673 239.449 C 54.352 243.183 58.099 247.73 61.712 250.269 C 63.552 251.558 65.622 252.726 67.841 253.765 C 65.118 259.648 60.935 270.714 69.028 270.714 C 73.126 270.714 77.138 268.066 80.696 264.902 C 83.915 267.75 87.72 269.605 92.185 269.605 C 99.02 269.605 100.36 264.964 99.661 259.636 C 103.372 259.128 107.138 257.777 109.384 254.839 C 112.856 250.304 109.501 245.921 105.517 243.234" fill-opacity="1" fill-rule="nonzero"/>
  <path fill="#f46a61" d="M 89.138 246.671 C 88.837 249.289 86.505 251.261 84.032 251.859 C 81.294 252.523 78.731 250.382 78.142 247.777 C 77.685 245.769 78.372 243.808 79.79 242.472 C 80.962 240.418 84.161 240.113 86.153 241.035 C 88.255 242.007 89.395 244.418 89.138 246.671" fill-opacity="1" fill-rule="nonzero"/>
  <path fill="#ffffff" d="M 74.411 242.144 C 74.255 242.136 74.145 242.367 74.274 242.472 C 74.579 242.714 74.888 242.875 75.071 243.242 C 75.231 243.558 75.192 243.929 75.341 244.242 C 75.376 244.32 75.481 244.32 75.536 244.269 C 75.872 243.949 75.7 243.339 75.509 242.984 C 75.294 242.586 74.888 242.164 74.411 242.144 Z M 105.032 243.14 C 105.118 243.074 105.075 242.914 104.97 242.894 C 103.212 242.543 102.216 246.109 104.431 246.113 C 104.563 246.113 104.61 245.961 104.532 245.867 C 104.376 245.687 104.185 245.57 104.017 245.402 C 103.7 245.082 103.727 244.609 103.923 244.222 C 104.181 243.707 104.614 243.492 105.032 243.14 Z M 73.974 220.867 C 73.263 221.336 72.634 221.933 72.665 222.859 C 72.688 223.414 73.063 224.328 73.751 224.179 C 73.86 224.156 73.888 224.035 73.849 223.949 C 73.626 223.492 73.22 223.285 73.239 222.703 C 73.263 222.089 73.704 221.472 74.134 221.07 C 74.243 220.972 74.099 220.781 73.974 220.867 Z M 86.017 249.609 C 85.474 249.668 84.974 249.925 84.438 250.035 C 83.778 250.168 83.11 250.207 82.438 250.16 C 82.243 250.148 82.2 250.461 82.392 250.503 C 83.524 250.746 85.247 250.796 86.145 249.925 C 86.251 249.824 86.181 249.593 86.017 249.609 Z M 81.45 242.363 C 80.645 243.382 80.157 244.609 79.974 245.89 C 79.876 246.562 79.798 247.296 80.005 247.953 C 80.208 248.589 80.708 249.039 81.063 249.586 C 81.145 249.714 81.009 249.843 80.88 249.824 C 79.278 249.546 79.044 247.464 79.216 246.171 C 79.419 244.609 79.946 243.074 81.255 242.113 C 81.415 241.992 81.552 242.234 81.45 242.363" fill-opacity="1" fill-rule="nonzero"/>
</svg>