<svg xmlns="http://www.w3.org/2000/svg" xmlns:xlink="http://www.w3.org/1999/xlink" width="500" zoomAndPan="magnify" viewBox="0 0 375 374.999991" height="500" preserveAspectRatio="xMidYMid meet" version="1.0"><defs><g/><clipPath id="a8ca63e1d9"><path d="M 20.191406 159.199219 L 79.3125 159.199219 L 79.3125 214.347656 L 20.191406 214.347656 Z M 20.191406 159.199219 " clip-rule="nonzero"/></clipPath></defs><rect x="-37.5" width="450" fill="#ffffff" y="-37.499999" height="449.999989" fill-opacity="1"/><rect x="-37.5" width="450" fill="#ffffff" y="-37.499999" height="449.999989" fill-opacity="1"/><g fill="#009df8" fill-opacity="1"><g transform="translate(110.405292, 210.276433)"><g><path d="M 2.152344 -0.988281 L 2.152344 -3.75 L 5.46875 -3.75 L 5.46875 -4.703125 L 2.152344 -4.703125 L 2.152344 -7.246094 L 5.773438 -7.246094 L 5.773438 -8.230469 L 1.117188 -8.230469 L 1.117188 0 L 5.902344 0 L 5.902344 -0.988281 Z M 2.152344 -0.988281 "/></g></g></g><g fill="#009df8" fill-opacity="1"><g transform="translate(117.128772, 210.276433)"><g><path d="M 8.019531 -6.480469 C 7.148438 -6.480469 6.339844 -6.019531 5.867188 -5.28125 C 5.515625 -6.019531 4.820312 -6.480469 3.917969 -6.480469 C 3.117188 -6.480469 2.375 -6.101562 1.882812 -5.46875 L 1.71875 -6.351562 L 1 -6.351562 L 1 0 L 2 0 L 2 -3.515625 C 2 -4.679688 2.761719 -5.574219 3.691406 -5.574219 C 4.609375 -5.574219 5.140625 -4.890625 5.140625 -3.738281 L 5.140625 0 L 6.128906 0 L 6.128906 -3.515625 C 6.128906 -4.679688 6.890625 -5.574219 7.820312 -5.574219 C 8.726562 -5.574219 9.253906 -4.890625 9.253906 -3.738281 L 9.253906 0 L 10.253906 0 L 10.253906 -4.058594 C 10.253906 -5.480469 9.359375 -6.480469 8.019531 -6.480469 Z M 8.019531 -6.480469 "/></g></g></g><g fill="#009df8" fill-opacity="1"><g transform="translate(128.51858, 210.276433)"><g><path d="M 4.375 -6.480469 C 3.351562 -6.480469 2.480469 -6.066406 1.894531 -5.375 L 1.695312 -6.351562 L 1 -6.351562 L 1 2.269531 L 2 2.269531 L 2 -0.847656 C 2.585938 -0.222656 3.421875 0.140625 4.375 0.140625 C 6.269531 0.140625 7.632812 -1.28125 7.632812 -3.175781 C 7.632812 -5.070312 6.269531 -6.480469 4.375 -6.480469 Z M 4.304688 -0.824219 C 2.953125 -0.824219 1.964844 -1.835938 1.964844 -3.175781 C 1.964844 -4.503906 2.953125 -5.515625 4.304688 -5.515625 C 5.644531 -5.515625 6.632812 -4.515625 6.632812 -3.175781 C 6.632812 -1.824219 5.644531 -0.824219 4.304688 -0.824219 Z M 4.304688 -0.824219 "/></g></g></g><g fill="#009df8" fill-opacity="1"><g transform="translate(136.887617, 210.276433)"><g><path d="M 3.867188 0.140625 C 5.785156 0.140625 7.230469 -1.269531 7.230469 -3.175781 C 7.230469 -5.070312 5.785156 -6.480469 3.867188 -6.480469 C 1.941406 -6.480469 0.492188 -5.082031 0.492188 -3.175781 C 0.492188 -1.269531 1.941406 0.140625 3.867188 0.140625 Z M 3.867188 -0.824219 C 2.503906 -0.824219 1.515625 -1.8125 1.515625 -3.175781 C 1.515625 -4.527344 2.503906 -5.515625 3.867188 -5.515625 C 5.222656 -5.515625 6.210938 -4.527344 6.210938 -3.164062 C 6.210938 -1.8125 5.222656 -0.824219 3.867188 -0.824219 Z M 3.867188 -0.824219 "/></g></g></g><g fill="#009df8" fill-opacity="1"><g transform="translate(144.857016, 210.276433)"><g><path d="M 8.738281 -6.351562 L 7.125 -1.621094 L 5.164062 -6.246094 L 4.796875 -6.246094 L 2.859375 -1.667969 L 1.269531 -6.351562 L 0.234375 -6.351562 L 2.375 0 L 3.1875 0 L 4.984375 -4.316406 L 6.773438 0 L 7.585938 0 L 9.75 -6.351562 Z M 8.738281 -6.351562 "/></g></g></g><g fill="#009df8" fill-opacity="1"><g transform="translate(155.059672, 210.276433)"><g><path d="M 6.9375 -3.140625 C 6.9375 -4.996094 5.667969 -6.480469 3.738281 -6.480469 C 1.894531 -6.480469 0.503906 -5.058594 0.503906 -3.175781 C 0.503906 -1.28125 1.894531 0.140625 3.738281 0.140625 C 5.117188 0.140625 6.234375 -0.625 6.773438 -1.929688 L 5.714844 -1.929688 C 5.328125 -1.246094 4.621094 -0.835938 3.738281 -0.835938 C 2.539062 -0.835938 1.65625 -1.609375 1.503906 -2.789062 L 6.914062 -2.789062 C 6.925781 -2.90625 6.9375 -3.023438 6.9375 -3.140625 Z M 3.738281 -5.539062 C 4.867188 -5.539062 5.726562 -4.832031 5.9375 -3.703125 L 1.527344 -3.703125 C 1.730469 -4.808594 2.585938 -5.539062 3.738281 -5.539062 Z M 3.738281 -5.539062 "/></g></g></g><g fill="#009df8" fill-opacity="1"><g transform="translate(162.711712, 210.276433)"><g><path d="M 3.90625 -6.375 C 2.988281 -6.375 2.328125 -6.03125 1.871094 -5.375 L 1.71875 -6.351562 L 1 -6.351562 L 1 0 L 2 0 L 2 -3.445312 C 2 -4.679688 2.65625 -5.433594 3.820312 -5.433594 L 4.46875 -5.433594 L 4.46875 -6.375 Z M 3.90625 -6.375 "/></g></g></g><g fill="#009df8" fill-opacity="1"><g transform="translate(167.472276, 210.276433)"><g><path d="M 0.964844 -7.445312 L 2.046875 -7.445312 L 2.046875 -8.585938 L 0.964844 -8.585938 Z M 1 0 L 2 0 L 2 -6.351562 L 1 -6.351562 Z M 1 0 "/></g></g></g><g fill="#009df8" fill-opacity="1"><g transform="translate(170.704826, 210.276433)"><g><path d="M 4.175781 -6.480469 C 3.199219 -6.480469 2.386719 -6.054688 1.90625 -5.351562 L 1.71875 -6.351562 L 1 -6.351562 L 1 0 L 2 0 L 2 -3.457031 C 2 -4.644531 2.835938 -5.574219 3.929688 -5.574219 C 5.023438 -5.574219 5.632812 -4.84375 5.632812 -3.5625 L 5.632812 0 L 6.632812 0 L 6.632812 -3.796875 C 6.632812 -5.351562 5.691406 -6.480469 4.175781 -6.480469 Z M 4.175781 -6.480469 "/></g></g></g><g fill="#009df8" fill-opacity="1"><g transform="translate(178.474408, 210.276433)"><g><path d="M 6.246094 -6.351562 L 6.089844 -5.363281 C 5.515625 -6.054688 4.644531 -6.480469 3.621094 -6.480469 C 1.859375 -6.480469 0.503906 -5.105469 0.503906 -3.339844 C 0.503906 -1.5625 1.859375 -0.199219 3.621094 -0.199219 C 4.5625 -0.199219 5.375 -0.550781 5.9375 -1.140625 L 5.9375 -0.753906 C 5.9375 0.660156 5.070312 1.492188 3.796875 1.492188 C 2.882812 1.492188 2.082031 1.046875 1.800781 0.257812 L 0.800781 0.257812 C 1.140625 1.597656 2.246094 2.410156 3.796875 2.410156 C 5.738281 2.410156 6.914062 1.164062 6.914062 -0.882812 L 6.914062 -6.339844 Z M 3.726562 -1.152344 C 2.457031 -1.152344 1.515625 -2.09375 1.515625 -3.339844 C 1.515625 -4.585938 2.457031 -5.527344 3.726562 -5.527344 C 4.996094 -5.527344 5.925781 -4.597656 5.925781 -3.339844 C 5.925781 -2.082031 5.007812 -1.152344 3.726562 -1.152344 Z M 3.726562 -1.152344 "/></g></g></g><g fill="#009df8" fill-opacity="1"><g transform="translate(186.620123, 210.276433)"><g/></g></g><g fill="#009df8" fill-opacity="1"><g transform="translate(189.923191, 210.276433)"><g><path d="M 6.28125 -8.230469 L 0.246094 -8.230469 L 0.246094 -7.257812 L 2.75 -7.257812 L 2.75 0 L 3.773438 0 L 3.773438 -7.257812 L 6.28125 -7.257812 Z M 6.28125 -8.230469 "/></g></g></g><g fill="#009df8" fill-opacity="1"><g transform="translate(196.681928, 210.276433)"><g><path d="M 3.867188 0.140625 C 5.785156 0.140625 7.230469 -1.269531 7.230469 -3.175781 C 7.230469 -5.070312 5.785156 -6.480469 3.867188 -6.480469 C 1.941406 -6.480469 0.492188 -5.082031 0.492188 -3.175781 C 0.492188 -1.269531 1.941406 0.140625 3.867188 0.140625 Z M 3.867188 -0.824219 C 2.503906 -0.824219 1.515625 -1.8125 1.515625 -3.175781 C 1.515625 -4.527344 2.503906 -5.515625 3.867188 -5.515625 C 5.222656 -5.515625 6.210938 -4.527344 6.210938 -3.164062 C 6.210938 -1.8125 5.222656 -0.824219 3.867188 -0.824219 Z M 3.867188 -0.824219 "/></g></g></g><g fill="#009df8" fill-opacity="1"><g transform="translate(204.651324, 210.276433)"><g><path d="M 8.019531 -6.480469 C 7.148438 -6.480469 6.339844 -6.019531 5.867188 -5.28125 C 5.515625 -6.019531 4.820312 -6.480469 3.917969 -6.480469 C 3.117188 -6.480469 2.375 -6.101562 1.882812 -5.46875 L 1.71875 -6.351562 L 1 -6.351562 L 1 0 L 2 0 L 2 -3.515625 C 2 -4.679688 2.761719 -5.574219 3.691406 -5.574219 C 4.609375 -5.574219 5.140625 -4.890625 5.140625 -3.738281 L 5.140625 0 L 6.128906 0 L 6.128906 -3.515625 C 6.128906 -4.679688 6.890625 -5.574219 7.820312 -5.574219 C 8.726562 -5.574219 9.253906 -4.890625 9.253906 -3.738281 L 9.253906 0 L 10.253906 0 L 10.253906 -4.058594 C 10.253906 -5.480469 9.359375 -6.480469 8.019531 -6.480469 Z M 8.019531 -6.480469 "/></g></g></g><g fill="#009df8" fill-opacity="1"><g transform="translate(216.04113, 210.276433)"><g><path d="M 3.867188 0.140625 C 5.785156 0.140625 7.230469 -1.269531 7.230469 -3.175781 C 7.230469 -5.070312 5.785156 -6.480469 3.867188 -6.480469 C 1.941406 -6.480469 0.492188 -5.082031 0.492188 -3.175781 C 0.492188 -1.269531 1.941406 0.140625 3.867188 0.140625 Z M 3.867188 -0.824219 C 2.503906 -0.824219 1.515625 -1.8125 1.515625 -3.175781 C 1.515625 -4.527344 2.503906 -5.515625 3.867188 -5.515625 C 5.222656 -5.515625 6.210938 -4.527344 6.210938 -3.164062 C 6.210938 -1.8125 5.222656 -0.824219 3.867188 -0.824219 Z M 3.867188 -0.824219 "/></g></g></g><g fill="#009df8" fill-opacity="1"><g transform="translate(224.010532, 210.276433)"><g><path d="M 3.90625 -6.375 C 2.988281 -6.375 2.328125 -6.03125 1.871094 -5.375 L 1.71875 -6.351562 L 1 -6.351562 L 1 0 L 2 0 L 2 -3.445312 C 2 -4.679688 2.65625 -5.433594 3.820312 -5.433594 L 4.46875 -5.433594 L 4.46875 -6.375 Z M 3.90625 -6.375 "/></g></g></g><g fill="#009df8" fill-opacity="1"><g transform="translate(228.771102, 210.276433)"><g><path d="M 3.90625 -6.375 C 2.988281 -6.375 2.328125 -6.03125 1.871094 -5.375 L 1.71875 -6.351562 L 1 -6.351562 L 1 0 L 2 0 L 2 -3.445312 C 2 -4.679688 2.65625 -5.433594 3.820312 -5.433594 L 4.46875 -5.433594 L 4.46875 -6.375 Z M 3.90625 -6.375 "/></g></g></g><g fill="#009df8" fill-opacity="1"><g transform="translate(233.531673, 210.276433)"><g><path d="M 3.867188 0.140625 C 5.785156 0.140625 7.230469 -1.269531 7.230469 -3.175781 C 7.230469 -5.070312 5.785156 -6.480469 3.867188 -6.480469 C 1.941406 -6.480469 0.492188 -5.082031 0.492188 -3.175781 C 0.492188 -1.269531 1.941406 0.140625 3.867188 0.140625 Z M 3.867188 -0.824219 C 2.503906 -0.824219 1.515625 -1.8125 1.515625 -3.175781 C 1.515625 -4.527344 2.503906 -5.515625 3.867188 -5.515625 C 5.222656 -5.515625 6.210938 -4.527344 6.210938 -3.164062 C 6.210938 -1.8125 5.222656 -0.824219 3.867188 -0.824219 Z M 3.867188 -0.824219 "/></g></g></g><g fill="#009df8" fill-opacity="1"><g transform="translate(241.501074, 210.276433)"><g><path d="M 8.738281 -6.351562 L 7.125 -1.621094 L 5.164062 -6.246094 L 4.796875 -6.246094 L 2.859375 -1.667969 L 1.269531 -6.351562 L 0.234375 -6.351562 L 2.375 0 L 3.1875 0 L 4.984375 -4.316406 L 6.773438 0 L 7.585938 0 L 9.75 -6.351562 Z M 8.738281 -6.351562 "/></g></g></g><g fill="#009df8" fill-opacity="1"><g transform="translate(251.703733, 210.276433)"><g><path d="M 0.8125 -5.375 L 1.753906 -5.375 L 1.753906 -8.253906 L 0.8125 -8.253906 Z M 0.8125 -5.375 "/></g></g></g><g fill="#009df8" fill-opacity="1"><g transform="translate(254.50139, 210.276433)"><g><path d="M 3.011719 0.140625 C 4.515625 0.140625 5.527344 -0.625 5.527344 -1.8125 C 5.527344 -3.363281 4.234375 -3.574219 3.140625 -3.75 C 2.292969 -3.878906 1.5625 -4.011719 1.5625 -4.679688 C 1.5625 -5.234375 2.105469 -5.585938 2.964844 -5.585938 C 3.855469 -5.585938 4.398438 -5.210938 4.433594 -4.515625 L 5.375 -4.515625 C 5.339844 -5.714844 4.421875 -6.480469 2.988281 -6.480469 C 1.550781 -6.480469 0.589844 -5.738281 0.589844 -4.644531 C 0.589844 -3.210938 1.8125 -2.988281 2.894531 -2.800781 C 3.75 -2.65625 4.539062 -2.515625 4.539062 -1.765625 C 4.539062 -1.152344 3.917969 -0.777344 3.046875 -0.777344 C 2.152344 -0.777344 1.503906 -1.1875 1.457031 -1.941406 L 0.46875 -1.941406 C 0.527344 -0.660156 1.503906 0.140625 3.011719 0.140625 Z M 3.011719 0.140625 "/></g></g></g><g fill="#009df8" fill-opacity="1"><g transform="translate(260.754716, 210.276433)"><g/></g></g><g fill="#009df8" fill-opacity="1"><g transform="translate(264.05779, 210.276433)"><g><path d="M 1.117188 0 L 2.152344 0 L 2.152344 -8.230469 L 1.117188 -8.230469 Z M 1.117188 0 "/></g></g></g><g fill="#009df8" fill-opacity="1"><g transform="translate(267.560689, 210.276433)"><g><path d="M 4.175781 -6.480469 C 3.199219 -6.480469 2.386719 -6.054688 1.90625 -5.351562 L 1.71875 -6.351562 L 1 -6.351562 L 1 0 L 2 0 L 2 -3.457031 C 2 -4.644531 2.835938 -5.574219 3.929688 -5.574219 C 5.023438 -5.574219 5.632812 -4.84375 5.632812 -3.5625 L 5.632812 0 L 6.632812 0 L 6.632812 -3.796875 C 6.632812 -5.351562 5.691406 -6.480469 4.175781 -6.480469 Z M 4.175781 -6.480469 "/></g></g></g><g fill="#009df8" fill-opacity="1"><g transform="translate(275.330277, 210.276433)"><g><path d="M 4.175781 -6.480469 C 3.199219 -6.480469 2.386719 -6.054688 1.90625 -5.351562 L 1.71875 -6.351562 L 1 -6.351562 L 1 0 L 2 0 L 2 -3.457031 C 2 -4.644531 2.835938 -5.574219 3.929688 -5.574219 C 5.023438 -5.574219 5.632812 -4.84375 5.632812 -3.5625 L 5.632812 0 L 6.632812 0 L 6.632812 -3.796875 C 6.632812 -5.351562 5.691406 -6.480469 4.175781 -6.480469 Z M 4.175781 -6.480469 "/></g></g></g><g fill="#009df8" fill-opacity="1"><g transform="translate(283.099865, 210.276433)"><g><path d="M 3.867188 0.140625 C 5.785156 0.140625 7.230469 -1.269531 7.230469 -3.175781 C 7.230469 -5.070312 5.785156 -6.480469 3.867188 -6.480469 C 1.941406 -6.480469 0.492188 -5.082031 0.492188 -3.175781 C 0.492188 -1.269531 1.941406 0.140625 3.867188 0.140625 Z M 3.867188 -0.824219 C 2.503906 -0.824219 1.515625 -1.8125 1.515625 -3.175781 C 1.515625 -4.527344 2.503906 -5.515625 3.867188 -5.515625 C 5.222656 -5.515625 6.210938 -4.527344 6.210938 -3.164062 C 6.210938 -1.8125 5.222656 -0.824219 3.867188 -0.824219 Z M 3.867188 -0.824219 "/></g></g></g><g fill="#009df8" fill-opacity="1"><g transform="translate(291.069267, 210.276433)"><g><path d="M 5.480469 -6.351562 L 3.375 -1.292969 L 1.210938 -6.351562 L 0.175781 -6.351562 L 2.917969 0 L 3.832031 0 L 6.503906 -6.351562 Z M 5.480469 -6.351562 "/></g></g></g><g fill="#009df8" fill-opacity="1"><g transform="translate(298.016082, 210.276433)"><g><path d="M 6.421875 -6.351562 L 6.292969 -5.375 C 5.703125 -6.066406 4.820312 -6.480469 3.785156 -6.480469 C 1.90625 -6.480469 0.492188 -5.070312 0.492188 -3.164062 C 0.492188 -1.28125 1.90625 0.140625 3.785156 0.140625 C 4.820312 0.140625 5.691406 -0.269531 6.28125 -0.953125 L 6.386719 0 L 7.207031 0 L 7.207031 -6.351562 Z M 3.855469 -0.824219 C 2.515625 -0.824219 1.515625 -1.835938 1.515625 -3.175781 C 1.515625 -4.503906 2.515625 -5.515625 3.855469 -5.515625 C 5.210938 -5.515625 6.1875 -4.515625 6.1875 -3.175781 C 6.1875 -1.824219 5.210938 -0.824219 3.855469 -0.824219 Z M 3.855469 -0.824219 "/></g></g></g><g fill="#009df8" fill-opacity="1"><g transform="translate(306.455641, 210.276433)"><g><path d="M 3.632812 -0.917969 C 2.761719 -0.917969 2.292969 -1.386719 2.292969 -2.246094 L 2.292969 -5.445312 L 4.292969 -5.445312 L 4.292969 -6.351562 L 2.292969 -6.351562 L 2.292969 -7.691406 L 2.140625 -7.691406 L 0.175781 -5.621094 L 0.175781 -5.445312 L 1.292969 -5.445312 L 1.292969 -2.210938 C 1.292969 -0.835938 2.140625 0 3.503906 0 L 4.328125 0 L 4.328125 -0.917969 Z M 3.632812 -0.917969 "/></g></g></g><g fill="#009df8" fill-opacity="1"><g transform="translate(311.333754, 210.276433)"><g><path d="M 3.867188 0.140625 C 5.785156 0.140625 7.230469 -1.269531 7.230469 -3.175781 C 7.230469 -5.070312 5.785156 -6.480469 3.867188 -6.480469 C 1.941406 -6.480469 0.492188 -5.082031 0.492188 -3.175781 C 0.492188 -1.269531 1.941406 0.140625 3.867188 0.140625 Z M 3.867188 -0.824219 C 2.503906 -0.824219 1.515625 -1.8125 1.515625 -3.175781 C 1.515625 -4.527344 2.503906 -5.515625 3.867188 -5.515625 C 5.222656 -5.515625 6.210938 -4.527344 6.210938 -3.164062 C 6.210938 -1.8125 5.222656 -0.824219 3.867188 -0.824219 Z M 3.867188 -0.824219 "/></g></g></g><g fill="#009df8" fill-opacity="1"><g transform="translate(319.303144, 210.276433)"><g><path d="M 3.90625 -6.375 C 2.988281 -6.375 2.328125 -6.03125 1.871094 -5.375 L 1.71875 -6.351562 L 1 -6.351562 L 1 0 L 2 0 L 2 -3.445312 C 2 -4.679688 2.65625 -5.433594 3.820312 -5.433594 L 4.46875 -5.433594 L 4.46875 -6.375 Z M 3.90625 -6.375 "/></g></g></g><g fill="#009df8" fill-opacity="1"><g transform="translate(324.063703, 210.276433)"><g><path d="M 3.011719 0.140625 C 4.515625 0.140625 5.527344 -0.625 5.527344 -1.8125 C 5.527344 -3.363281 4.234375 -3.574219 3.140625 -3.75 C 2.292969 -3.878906 1.5625 -4.011719 1.5625 -4.679688 C 1.5625 -5.234375 2.105469 -5.585938 2.964844 -5.585938 C 3.855469 -5.585938 4.398438 -5.210938 4.433594 -4.515625 L 5.375 -4.515625 C 5.339844 -5.714844 4.421875 -6.480469 2.988281 -6.480469 C 1.550781 -6.480469 0.589844 -5.738281 0.589844 -4.644531 C 0.589844 -3.210938 1.8125 -2.988281 2.894531 -2.800781 C 3.75 -2.65625 4.539062 -2.515625 4.539062 -1.765625 C 4.539062 -1.152344 3.917969 -0.777344 3.046875 -0.777344 C 2.152344 -0.777344 1.503906 -1.1875 1.457031 -1.941406 L 0.46875 -1.941406 C 0.527344 -0.660156 1.503906 0.140625 3.011719 0.140625 Z M 3.011719 0.140625 "/></g></g></g><g fill="#000000" fill-opacity="1"><g transform="translate(83.566472, 190.561965)"><g><path d="M 5.597656 -16.726562 C 5.8125 -11.96875 12.964844 -11.75 16.132812 -9.699219 C 18 -8.425781 18.464844 -5.625 17.160156 -3.574219 C 17.285156 -4.011719 17.378906 -4.570312 17.378906 -5.128906 C 17.535156 -9.140625 11.472656 -9.542969 8.765625 -10.632812 C 5.316406 -11.96875 4.695312 -14.550781 5.597656 -16.726562 Z M 18.652344 -21.449219 C 19.027344 -22.101562 17.8125 -22.414062 17.378906 -21.824219 C 16.601562 -20.519531 13.742188 -21.449219 12.25 -21.824219 C 5.90625 -23.441406 1.210938 -15.386719 5.253906 -11.097656 C 8.394531 -7.742188 15.949219 -8.425781 15.855469 -5.222656 C 15.761719 -3.078125 14.363281 -0.839844 11.191406 -0.652344 C 9.140625 -0.558594 7.089844 -1.679688 5.8125 -2.734375 C 5.253906 -3.265625 4.851562 -5.625 4.972656 -6.652344 C 4.972656 -7.089844 5.035156 -7.554688 4.972656 -7.925781 C 4.972656 -8.984375 3.667969 -9.171875 3.636719 -8.113281 C 3.636719 -5.625 2.734375 -2.050781 1.492188 0.527344 C 1.210938 1.179688 1.988281 2.019531 2.332031 1.367188 C 3.171875 -0.464844 3.855469 -1.585938 6.15625 -0.496094 C 7.367188 0.0625 8.953125 0.558594 10.570312 0.652344 C 14.734375 0.933594 19.335938 -0.871094 19.398438 -6.25 C 19.492188 -8.207031 18.464844 -10.011719 16.972656 -10.941406 C 13.367188 -13.335938 6.09375 -13.179688 7.210938 -18 C 7.773438 -20.332031 10.101562 -21.203125 11.96875 -20.703125 C 13.335938 -20.363281 14.734375 -19.679688 15.296875 -18.464844 C 15.886719 -17.160156 15.109375 -14.578125 15.109375 -14.300781 C 15.140625 -13.925781 15.605469 -13.617188 15.980469 -13.925781 C 16.445312 -14.269531 17.90625 -20.332031 18.652344 -21.449219 Z M 18.652344 -21.449219 "/></g></g></g><g fill="#000000" fill-opacity="1"><g transform="translate(106.565235, 190.561965)"><g><path d="M 9.824219 0.0625 C 12.527344 -0.1875 13.710938 -1.585938 14.363281 -2.144531 C 15.015625 -2.734375 15.699219 -4.195312 15.761719 -5.503906 C 15.761719 -6.34375 14.734375 -6.464844 14.488281 -5.316406 C 13.988281 -2.613281 12.21875 -0.839844 10.011719 -0.652344 C 4.320312 -0.1875 3.824219 -10.539062 6.839844 -15.417969 C 7.835938 -17.003906 9.078125 -17.75 10.664062 -17.75 C 13.617188 -17.75 12.496094 -14.207031 12.339844 -13.460938 C 12.21875 -12.683594 13.148438 -12.0625 13.148438 -13.058594 C 13.148438 -13.988281 14.175781 -16.972656 14.734375 -18.1875 C 15.234375 -19.398438 14.488281 -19.988281 14.300781 -19.054688 C 14.082031 -18 11.285156 -18.589844 10.726562 -18.589844 C -2.300781 -18.589844 -2.300781 1.089844 9.824219 0.0625 Z M 9.824219 0.0625 "/></g></g></g><g fill="#000000" fill-opacity="1"><g transform="translate(125.554928, 190.561965)"><g><path d="M 0.746094 -18.589844 C 0.1875 -18.589844 0.28125 -17.90625 0.933594 -17.75 C 1.585938 -17.65625 2.457031 -16.816406 2.613281 -15.667969 C 2.796875 -14.488281 2.519531 -2.734375 2.519531 -1.957031 C 2.519531 -1.210938 1.585938 -0.777344 0.839844 -0.402344 C 0.09375 -0.09375 1.027344 0.1875 1.804688 0.0625 C 2.640625 -0.125 5.875 -0.496094 6.746094 -0.1875 C 7.679688 0.15625 8.238281 -0.3125 7.742188 -0.683594 C 7.273438 -1.058594 6.1875 -1.710938 6.09375 -2.703125 C 6.0625 -3.667969 6.15625 -14.859375 6.15625 -15.792969 C 6.15625 -16.789062 7.273438 -17.71875 7.742188 -17.8125 C 8.238281 -17.90625 8.207031 -18.652344 6.714844 -18.308594 C 5.253906 -18 1.304688 -18.589844 0.746094 -18.589844 Z M 0.746094 -18.589844 "/></g></g></g><g fill="#000000" fill-opacity="1"><g transform="translate(137.520978, 190.561965)"><g><path d="M 1.210938 -22.757812 C 1.121094 -21.078125 0.464844 -18.558594 0 -17.253906 C -0.464844 -15.949219 1.121094 -15.886719 1.148438 -16.816406 C 1.304688 -17.8125 3.078125 -20.425781 4.476562 -20.519531 L 6.777344 -20.640625 C 7.027344 -20.394531 6.746094 -19.863281 6.902344 -18.777344 C 7.089844 -17.378906 6.746094 -3.296875 6.746094 -2.332031 C 6.746094 -1.429688 5.625 -0.933594 4.789062 -0.496094 C 3.917969 -0.09375 4.972656 0.25 5.96875 0.0625 C 6.933594 -0.1875 10.820312 -0.589844 11.84375 -0.21875 C 12.964844 0.1875 13.648438 -0.375 13.085938 -0.839844 C 12.496094 -1.304688 11.191406 -2.050781 11.097656 -3.265625 C 11.003906 -4.414062 11.128906 -17.84375 11.128906 -18.964844 C 11.128906 -19.617188 11.566406 -20.269531 12.0625 -20.734375 C 13.367188 -20.734375 14.457031 -20.703125 14.859375 -20.609375 C 16.164062 -20.332031 16.042969 -18.558594 15.886719 -17.625 C 15.761719 -16.695312 15.324219 -16.257812 15.417969 -16.042969 C 15.605469 -15.855469 16.972656 -14.921875 16.972656 -16.042969 C 17.003906 -17.160156 17.71875 -20.984375 18 -21.917969 C 18.28125 -22.847656 18.1875 -23.96875 17.097656 -23.441406 C 16.042969 -22.878906 15.886719 -21.917969 14.269531 -21.917969 C 12.589844 -21.917969 4.941406 -21.761719 3.917969 -21.917969 C 2.828125 -22.101562 2.519531 -22.414062 2.425781 -22.847656 C 2.238281 -23.222656 1.335938 -24.433594 1.210938 -22.757812 Z M 9.824219 -20.363281 C 9.699219 -19.894531 9.605469 -19.492188 9.605469 -19.027344 C 9.605469 -17.84375 9.449219 -4.289062 9.542969 -3.109375 C 9.605469 -2.703125 9.730469 -2.269531 9.824219 -1.957031 C 9.328125 -1.894531 8.765625 -1.867188 8.207031 -1.710938 C 8.300781 -1.957031 8.300781 -2.144531 8.300781 -2.332031 C 8.300781 -2.796875 8.394531 -6.527344 8.425781 -10.351562 C 8.488281 -14.082031 8.582031 -18.125 8.425781 -19.027344 C 8.394531 -19.460938 8.019531 -20.269531 7.835938 -20.671875 L 7.894531 -20.671875 C 8.640625 -20.363281 9.265625 -20.363281 9.824219 -20.363281 Z M 9.824219 -20.363281 "/></g></g></g><g fill="#000000" fill-opacity="1"><g transform="translate(158.437515, 190.561965)"><g><path d="M 14.921875 -0.1875 C 14.550781 -0.777344 14.671875 -5.625 14.828125 -6.652344 C 15.015625 -7.679688 13.742188 -8.113281 13.742188 -6.902344 C 13.710938 -5.625 12.621094 -2.332031 11.097656 -1.585938 C 9.917969 -1.027344 9.171875 -1.027344 8.050781 -1.058594 C 6.902344 -1.058594 6.34375 -1.804688 6.1875 -3.667969 C 6 -5.503906 6.28125 -8.425781 6.34375 -9.449219 C 7.460938 -9.449219 8.796875 -9.328125 9.046875 -8.425781 C 9.265625 -7.554688 9.417969 -7.398438 9.636719 -7.398438 C 9.886719 -7.398438 10.257812 -7.492188 10.074219 -8.113281 C 9.699219 -9.355469 10.539062 -10.820312 10.910156 -11.65625 C 11.285156 -12.496094 10.351562 -12.589844 10.011719 -11.84375 C 9.605469 -10.820312 8.050781 -10.445312 6.34375 -10.632812 C 6.34375 -11.6875 6.464844 -12.714844 6.527344 -13.429688 C 6.714844 -15.046875 6.839844 -17.097656 7.648438 -17.378906 C 8.144531 -17.535156 10.257812 -17.378906 12.03125 -16.726562 C 12.777344 -16.507812 13.523438 -14.269531 12.808594 -12.871094 C 12.902344 -12.15625 13.925781 -12.621094 14.082031 -13.367188 C 14.300781 -14.363281 15.886719 -19.679688 14.578125 -19.054688 C 12.996094 -18.28125 10.351562 -18.28125 8.144531 -18.28125 C 4.507812 -18.21875 4.601562 -17.8125 2.734375 -18.496094 C 2.144531 -18.683594 1.988281 -19.398438 1.027344 -19.894531 C 0.28125 -20.269531 -0.375 -19.492188 0.1875 -18.839844 C 0.683594 -18.21875 2.269531 -17.253906 2.640625 -17.066406 C 3.015625 -16.816406 3.015625 -13.148438 2.984375 -10.351562 C 2.921875 -7.585938 2.921875 -2.175781 2.332031 -1.523438 C 1.773438 -0.871094 1.523438 -0.558594 1.242188 -0.402344 C 0.933594 -0.28125 0.964844 0.996094 1.617188 0.527344 C 3.265625 -0.125 9.917969 -0.1875 11.875 0 C 12.777344 0.09375 13.710938 0 13.925781 0.433594 C 14.550781 1.460938 15.605469 0.996094 14.921875 -0.1875 Z M 14.921875 -0.1875 "/></g></g></g><g fill="#000000" fill-opacity="1"><g transform="translate(178.981112, 190.561965)"><g><path d="M 9.824219 0.0625 C 12.527344 -0.1875 13.710938 -1.585938 14.363281 -2.144531 C 15.015625 -2.734375 15.699219 -4.195312 15.761719 -5.503906 C 15.761719 -6.34375 14.734375 -6.464844 14.488281 -5.316406 C 13.988281 -2.613281 12.21875 -0.839844 10.011719 -0.652344 C 4.320312 -0.1875 3.824219 -10.539062 6.839844 -15.417969 C 7.835938 -17.003906 9.078125 -17.75 10.664062 -17.75 C 13.617188 -17.75 12.496094 -14.207031 12.339844 -13.460938 C 12.21875 -12.683594 13.148438 -12.0625 13.148438 -13.058594 C 13.148438 -13.988281 14.175781 -16.972656 14.734375 -18.1875 C 15.234375 -19.398438 14.488281 -19.988281 14.300781 -19.054688 C 14.082031 -18 11.285156 -18.589844 10.726562 -18.589844 C -2.300781 -18.589844 -2.300781 1.089844 9.824219 0.0625 Z M 9.824219 0.0625 "/></g></g></g><g fill="#000000" fill-opacity="1"><g transform="translate(197.970807, 190.561965)"><g><path d="M 9.511719 -18.28125 C 8.953125 -18.21875 9.046875 -17.535156 9.699219 -17.472656 C 10.351562 -17.472656 11.222656 -16.789062 11.378906 -15.605469 C 11.472656 -15.046875 11.378906 -11.875 11.285156 -8.765625 C 9.265625 -8.488281 7.398438 -8.332031 5.625 -8.394531 C 5.625 -11.6875 5.6875 -15.296875 5.6875 -15.792969 C 5.6875 -16.789062 6.808594 -17.71875 7.273438 -17.8125 C 7.773438 -17.90625 7.742188 -18.652344 6.25 -18.308594 C 4.789062 -18 0.839844 -18.589844 0.28125 -18.589844 C -0.28125 -18.589844 -0.1875 -17.90625 0.464844 -17.75 C 1.121094 -17.65625 1.988281 -16.816406 2.144531 -15.667969 C 2.332031 -14.488281 2.050781 -2.734375 2.050781 -1.957031 C 2.050781 -1.210938 1.121094 -0.777344 0.375 -0.402344 C -0.375 -0.09375 0.558594 0.1875 1.335938 0.0625 C 2.175781 -0.125 5.410156 -0.496094 6.28125 -0.1875 C 7.210938 0.15625 7.773438 -0.3125 7.273438 -0.683594 C 6.808594 -1.058594 5.71875 -1.710938 5.625 -2.703125 L 5.625 -7.210938 C 7.554688 -7.460938 9.265625 -7.648438 11.222656 -7.742188 C 11.128906 -4.757812 11.035156 -1.988281 11.003906 -1.617188 C 11.003906 -0.871094 10.101562 -0.496094 9.355469 -0.1875 C 8.609375 0.09375 9.511719 0.433594 10.351562 0.34375 C 11.191406 0.25 14.394531 0 15.296875 0.433594 C 16.164062 0.808594 16.789062 0.375 16.257812 -0.03125 C 15.792969 -0.402344 14.734375 -1.148438 14.640625 -2.144531 C 14.550781 -3.109375 14.921875 -15.296875 14.921875 -16.257812 C 14.921875 -17.191406 16.042969 -18.28125 16.507812 -18.464844 C 17.003906 -18.652344 16.972656 -19.335938 15.511719 -18.839844 C 14.019531 -18.308594 10.101562 -18.371094 9.511719 -18.28125 Z M 9.511719 -18.28125 "/></g></g></g><g fill="#000000" fill-opacity="1"><g transform="translate(217.861759, 190.561965)"><g/></g></g><g fill="#000000" fill-opacity="1"><g transform="translate(229.73458, 190.561965)"><g><path d="M 2.425781 -10.820312 C 2.519531 -14.175781 4.011719 -17.625 8.113281 -19.523438 C 3.449219 -14.082031 3.265625 -7.742188 6.996094 -2.519531 C 4.011719 -4.011719 2.269531 -6.933594 2.425781 -10.820312 Z M 13.648438 0.0625 C 17.84375 -0.21875 19.617188 -1.894531 20.609375 -2.550781 C 21.574219 -3.296875 22.695312 -5.035156 22.695312 -6.621094 C 22.695312 -7.585938 21.171875 -7.773438 20.796875 -6.371094 C 20.050781 -3.109375 17.285156 -1.027344 13.925781 -0.777344 C 5.316406 -0.21875 4.507812 -12.621094 9.171875 -18.496094 C 10.664062 -20.425781 12.589844 -21.296875 15.015625 -21.296875 C 19.398438 -21.296875 17.71875 -17.066406 17.535156 -16.164062 C 17.285156 -15.203125 18.746094 -14.488281 18.746094 -15.667969 C 18.777344 -16.789062 20.363281 -20.363281 21.171875 -21.824219 C 21.917969 -23.253906 20.796875 -24 20.519531 -22.878906 C 20.175781 -21.574219 15.886719 -22.320312 15.046875 -22.320312 C -4.105469 -22.320312 -4.105469 1.210938 13.648438 0.0625 Z M 13.648438 0.0625 "/></g></g></g><g fill="#000000" fill-opacity="1"><g transform="translate(255.437127, 190.561965)"><g><path d="M 9.730469 -19.148438 C -4.726562 -16.910156 -0.28125 2.613281 13.085938 0.527344 C 26.144531 -1.523438 24.558594 -21.480469 9.730469 -19.148438 Z M 9.824219 -18.28125 C 12.996094 -18.777344 16.132812 -17.8125 17.253906 -10.664062 C 18.402344 -3.480469 15.699219 -0.652344 12.996094 -0.21875 C 10.351562 0.1875 6.433594 -2.640625 5.503906 -8.394531 C 4.601562 -14.175781 6.652344 -17.8125 9.824219 -18.28125 Z M 9.824219 -18.28125 "/></g></g></g><g fill="#000000" fill-opacity="1"><g transform="translate(280.828887, 190.561965)"><g><path d="M 16.878906 -12.808594 C 15.480469 -19.429688 9.886719 -18.371094 8.796875 -18.125 C 7.773438 -17.9375 4.972656 -17.5625 3.359375 -17.472656 C 1.429688 -17.378906 1.773438 -18.652344 1.121094 -18.871094 C 0.375 -19.148438 -0.28125 -18.308594 0.21875 -17.71875 C 0.777344 -17.160156 2.363281 -16.414062 2.734375 -16.226562 C 3.109375 -16.042969 3.109375 -12.339844 3.078125 -9.542969 C 3.078125 -6.808594 3.015625 -2.332031 2.425781 -1.585938 C 1.804688 -0.839844 1.148438 -0.1875 0.839844 -0.03125 C 0.496094 0.15625 0.375 1.398438 1.121094 0.902344 C 1.867188 0.34375 4.695312 -1.148438 6.902344 -0.496094 C 9.078125 0.15625 12.15625 -0.125 13.523438 -1.148438 C 14.859375 -2.175781 18.496094 -5.066406 16.878906 -12.808594 Z M 13.367188 -9.917969 C 13.554688 -6.34375 13.058594 -3.667969 11.75 -2.175781 C 11.097656 -1.492188 6.933594 -0.464844 6.621094 -2.175781 C 6.464844 -2.984375 6.464844 -10.664062 6.652344 -12.621094 C 6.808594 -14.578125 6.933594 -16.164062 7.648438 -16.695312 C 8.144531 -17.160156 10.101562 -17.160156 11.191406 -16.414062 C 12.21875 -15.605469 13.148438 -13.554688 13.367188 -9.917969 Z M 13.367188 -9.917969 "/></g></g></g><g fill="#000000" fill-opacity="1"><g transform="translate(301.745412, 190.561965)"><g><path d="M 14.921875 -0.1875 C 14.550781 -0.777344 14.671875 -5.625 14.828125 -6.652344 C 15.015625 -7.679688 13.742188 -8.113281 13.742188 -6.902344 C 13.710938 -5.625 12.621094 -2.332031 11.097656 -1.585938 C 9.917969 -1.027344 9.171875 -1.027344 8.050781 -1.058594 C 6.902344 -1.058594 6.34375 -1.804688 6.1875 -3.667969 C 6 -5.503906 6.28125 -8.425781 6.34375 -9.449219 C 7.460938 -9.449219 8.796875 -9.328125 9.046875 -8.425781 C 9.265625 -7.554688 9.417969 -7.398438 9.636719 -7.398438 C 9.886719 -7.398438 10.257812 -7.492188 10.074219 -8.113281 C 9.699219 -9.355469 10.539062 -10.820312 10.910156 -11.65625 C 11.285156 -12.496094 10.351562 -12.589844 10.011719 -11.84375 C 9.605469 -10.820312 8.050781 -10.445312 6.34375 -10.632812 C 6.34375 -11.6875 6.464844 -12.714844 6.527344 -13.429688 C 6.714844 -15.046875 6.839844 -17.097656 7.648438 -17.378906 C 8.144531 -17.535156 10.257812 -17.378906 12.03125 -16.726562 C 12.777344 -16.507812 13.523438 -14.269531 12.808594 -12.871094 C 12.902344 -12.15625 13.925781 -12.621094 14.082031 -13.367188 C 14.300781 -14.363281 15.886719 -19.679688 14.578125 -19.054688 C 12.996094 -18.28125 10.351562 -18.28125 8.144531 -18.28125 C 4.507812 -18.21875 4.601562 -17.8125 2.734375 -18.496094 C 2.144531 -18.683594 1.988281 -19.398438 1.027344 -19.894531 C 0.28125 -20.269531 -0.375 -19.492188 0.1875 -18.839844 C 0.683594 -18.21875 2.269531 -17.253906 2.640625 -17.066406 C 3.015625 -16.816406 3.015625 -13.148438 2.984375 -10.351562 C 2.921875 -7.585938 2.921875 -2.175781 2.332031 -1.523438 C 1.773438 -0.871094 1.523438 -0.558594 1.242188 -0.402344 C 0.933594 -0.28125 0.964844 0.996094 1.617188 0.527344 C 3.265625 -0.125 9.917969 -0.1875 11.875 0 C 12.777344 0.09375 13.710938 0 13.925781 0.433594 C 14.550781 1.460938 15.605469 0.996094 14.921875 -0.1875 Z M 14.921875 -0.1875 "/></g></g></g><g fill="#000000" fill-opacity="1"><g transform="translate(322.288997, 190.561965)"><g><path d="M 1.027344 -19.398438 C 0.28125 -19.773438 -0.375 -18.964844 0.1875 -18.371094 C 0.683594 -17.71875 2.269531 -16.789062 2.640625 -16.539062 C 3.015625 -16.351562 3.015625 -12.621094 2.984375 -9.886719 C 2.921875 -7.089844 2.921875 -2.363281 2.332031 -1.710938 C 1.773438 -1.058594 1.523438 -0.683594 1.242188 -0.558594 C 0.933594 -0.402344 0.964844 0.808594 1.617188 0.375 C 2.332031 -0.09375 5.96875 -0.777344 7.273438 -0.3125 C 8.519531 0.15625 8.332031 -1.058594 7.863281 -1.058594 C 7.398438 -1.058594 6.621094 -1.210938 6.433594 -2.050781 C 6.371094 -2.550781 6.34375 -5.253906 6.371094 -7.835938 L 6.714844 -7.835938 C 8.890625 -7.835938 8.984375 -6.371094 9.636719 -5.035156 C 10.289062 -3.667969 11.503906 -0.464844 13.523438 0.34375 C 14.765625 0.839844 16.132812 0.464844 16.910156 0.25 C 17.378906 0.09375 17.535156 -1.027344 16.726562 -0.683594 C 15.980469 -0.375 15.480469 -1.148438 15.046875 -1.804688 C 14.859375 -2.175781 14.394531 -3.730469 13.460938 -5.535156 C 12.621094 -7.179688 11.59375 -7.957031 11.128906 -8.207031 C 11.96875 -8.519531 14.394531 -9.730469 14.734375 -11.96875 C 15.046875 -14.207031 14.207031 -18.308594 9.449219 -18.28125 C 5.78125 -18.21875 4.878906 -17.625 3.296875 -17.71875 C 1.335938 -17.84375 1.679688 -19.054688 1.027344 -19.398438 Z M 6.433594 -9.417969 C 6.433594 -10.757812 6.464844 -11.9375 6.527344 -12.527344 C 6.714844 -14.457031 6.839844 -16.632812 7.648438 -16.878906 C 8.394531 -17.097656 11.316406 -16.695312 11.285156 -12.964844 C 11.222656 -11.566406 9.980469 -9.234375 8.425781 -9.328125 C 7.210938 -9.417969 7.027344 -9.417969 6.433594 -9.417969 Z M 6.433594 -9.417969 "/></g></g></g><g fill="#000000" fill-opacity="1"><g transform="translate(342.211032, 190.561965)"><g><path d="M 13.988281 -18.996094 C 14.332031 -19.617188 13.304688 -19.894531 12.996094 -19.367188 C 12.371094 -18.21875 10.042969 -18.996094 8.859375 -19.367188 C 6.839844 -19.894531 4.445312 -19.179688 3.203125 -17.8125 C 1.210938 -15.730469 1.089844 -12.125 3.109375 -9.824219 C 5.65625 -6.808594 10.476562 -7.210938 11.78125 -4.570312 C 12.496094 -2.859375 10.476562 -0.683594 7.925781 -0.558594 C 6.25 -0.433594 4.601562 -1.429688 3.542969 -2.363281 C 3.109375 -2.828125 2.796875 -4.972656 2.828125 -5.84375 C 2.890625 -6.25 2.890625 -6.652344 2.890625 -7.027344 C 2.828125 -7.957031 1.804688 -8.113281 1.804688 -7.148438 C 1.804688 -4.972656 1.089844 -1.773438 0.09375 0.527344 C -0.1875 1.121094 0.496094 1.835938 0.714844 1.242188 C 1.398438 -0.34375 1.988281 -1.335938 3.855469 -0.375 C 4.851562 0.125 6.125 0.558594 7.429688 0.652344 C 10.789062 0.902344 14.578125 -0.746094 14.609375 -5.535156 C 14.671875 -7.242188 13.894531 -8.859375 12.621094 -9.699219 C 9.761719 -11.8125 3.824219 -11.6875 4.726562 -15.980469 C 5.160156 -18 7.585938 -18.496094 9.078125 -18.0625 C 10.164062 -17.78125 10.789062 -17.472656 11.253906 -16.382812 C 11.78125 -15.234375 11.097656 -12.933594 11.097656 -12.683594 C 11.160156 -12.339844 11.566406 -12.03125 11.875 -12.339844 C 12.28125 -12.621094 13.398438 -18 13.988281 -18.996094 Z M 13.988281 -18.996094 "/></g></g></g><path fill="#009df8" d="M 71.613281 197.558594 C 69.78125 198.660156 67.726562 199.238281 65.613281 199.5 C 64.941406 195.960938 63.53125 192.273438 62.34375 189.535156 C 63.257812 188.335938 64.136719 187.105469 64.972656 185.847656 C 65.496094 185.058594 66.042969 184.21875 66.578125 183.347656 C 68.574219 184.363281 70.441406 185.546875 72.109375 186.914062 C 76.234375 190.296875 76.476562 194.640625 71.613281 197.558594 Z M 62.820312 208.042969 C 59.128906 211.074219 53.242188 208.761719 49.886719 206.414062 C 49.269531 205.984375 48.683594 205.519531 48.113281 205.035156 C 49.753906 203.484375 51.28125 201.878906 52.652344 200.441406 C 55.886719 200.917969 59.039062 201.164062 61.929688 201.164062 C 62.847656 201.164062 63.8125 201.121094 64.789062 201.027344 C 65.195312 203.761719 64.859375 206.371094 62.820312 208.042969 Z M 32.828125 208.222656 C 31.3125 205.027344 32.984375 200.019531 35.109375 195.527344 C 36.664062 196.214844 38.289062 196.839844 39.949219 197.402344 C 41.574219 200.167969 43.457031 202.800781 45.628906 204.992188 C 40.242188 209.464844 34.804688 212.386719 32.828125 208.222656 Z M 29.371094 190.5625 C 25.910156 188.253906 22.382812 184.71875 26.910156 181.476562 C 28.460938 180.363281 30.304688 179.613281 32.257812 179.113281 C 33.078125 181.859375 33.992188 184.277344 34.542969 185.746094 C 35.082031 187.191406 35.691406 188.730469 36.378906 190.308594 C 36.023438 190.980469 35.675781 191.648438 35.339844 192.3125 C 35.171875 192.644531 34.960938 193.070312 34.71875 193.5625 C 32.851562 192.679688 31.058594 191.6875 29.371094 190.5625 Z M 35.449219 164.027344 C 41.144531 164.027344 46.042969 167.375 50.121094 171.996094 C 48.492188 173.460938 46.949219 175.054688 45.5 176.742188 C 43.550781 176.679688 41.617188 176.710938 39.71875 176.835938 C 37.816406 176.960938 35.660156 177.082031 33.515625 177.390625 C 31.816406 171.773438 30.328125 164.027344 35.449219 164.027344 Z M 61.550781 187.773438 C 60.335938 185.140625 59.035156 182.523438 57.5625 180.011719 C 60.03125 180.648438 62.453125 181.460938 64.734375 182.46875 C 63.683594 184.394531 62.5625 186.222656 61.550781 187.773438 Z M 51.113281 173.167969 C 52.285156 174.597656 53.378906 176.121094 54.402344 177.691406 C 52.117188 177.265625 49.8125 176.984375 47.511719 176.835938 C 47.566406 176.78125 47.617188 176.722656 47.671875 176.667969 C 48.726562 175.574219 49.878906 174.363281 51.113281 173.167969 Z M 37.460938 188.339844 C 36.671875 186.375 35.949219 184.414062 35.265625 182.523438 C 35 181.789062 34.488281 180.417969 33.941406 178.742188 C 36.75 178.222656 39.6875 178.121094 42.261719 178.121094 C 42.9375 178.121094 43.625 178.132812 44.320312 178.15625 C 41.726562 181.367188 39.441406 184.847656 37.460938 188.339844 Z M 38.75 195.253906 C 37.757812 194.886719 36.785156 194.488281 35.824219 194.066406 C 36.226562 193.269531 36.632812 192.496094 37.03125 191.765625 C 37.5625 192.921875 38.132812 194.09375 38.75 195.253906 Z M 41.074219 196.058594 C 39.957031 194.054688 38.972656 191.960938 38.085938 189.851562 C 38.507812 189.089844 38.894531 188.402344 39.214844 187.816406 C 41.121094 184.324219 43.527344 181.179688 46.195312 178.246094 C 49.246094 178.433594 52.425781 178.851562 55.558594 179.535156 C 57.550781 182.828125 59.230469 186.21875 60.582031 189.21875 C 59.632812 190.605469 58.859375 191.628906 58.453125 192.097656 C 57.652344 193.011719 55.332031 195.683594 52.375 198.699219 C 48.585938 198.101562 44.757812 197.25 41.074219 196.058594 Z M 42.316406 198.15625 C 45.144531 199 48.050781 199.671875 50.914062 200.164062 C 49.636719 201.425781 48.277344 202.707031 46.894531 203.914062 C 45.152344 202.210938 43.644531 200.257812 42.316406 198.15625 Z M 61.828125 192.082031 C 62.644531 194.019531 63.878906 196.808594 64.519531 199.609375 C 62.632812 199.746094 60.71875 199.664062 58.886719 199.5 C 57.308594 199.359375 55.703125 199.179688 54.085938 198.953125 C 56.609375 196.371094 59.054688 193.691406 61.308594 190.863281 C 61.488281 191.28125 61.664062 191.6875 61.828125 192.082031 Z M 63.972656 166.242188 C 71.335938 166.242188 69.113281 174.011719 65.476562 181.074219 C 62.578125 179.789062 59.519531 178.804688 56.390625 178.101562 C 55.136719 176.136719 53.761719 174.257812 52.214844 172.511719 C 52.15625 172.441406 52.09375 172.371094 52.027344 172.300781 C 55.476562 169.109375 59.523438 166.242188 63.972656 166.242188 Z M 71.695312 184.5 C 70.320312 183.570312 68.882812 182.734375 67.390625 181.984375 C 69.28125 178.691406 70.847656 174.992188 70.605469 171.378906 C 70.160156 164.734375 63.753906 163.660156 58.582031 166.191406 C 55.882812 167.507812 53.367188 169.21875 51.027344 171.207031 C 47.03125 166.960938 39.605469 160.332031 34.132812 162.363281 C 29.296875 164.160156 30.152344 171.449219 31.847656 177.675781 C 29.230469 178.199219 26.734375 179.085938 24.851562 180.714844 C 20.53125 184.449219 24.277344 188.996094 27.890625 191.535156 C 29.730469 192.824219 31.800781 193.992188 34.019531 195.03125 C 31.296875 200.914062 27.113281 211.980469 35.207031 211.980469 C 39.304688 211.980469 43.316406 209.332031 46.875 206.167969 C 50.09375 209.015625 53.898438 210.871094 58.363281 210.871094 C 65.199219 210.871094 66.539062 206.230469 65.839844 200.902344 C 69.550781 200.394531 73.316406 199.042969 75.5625 196.105469 C 79.035156 191.570312 75.679688 187.1875 71.695312 184.5 " fill-opacity="1" fill-rule="nonzero"/><path fill="#f46a61" d="M 55.316406 187.9375 C 55.015625 190.554688 52.683594 192.527344 50.210938 193.125 C 47.472656 193.789062 44.910156 191.648438 44.320312 189.042969 C 43.863281 187.035156 44.550781 185.074219 45.96875 183.738281 C 47.140625 181.683594 50.339844 181.378906 52.332031 182.300781 C 54.433594 183.273438 55.574219 185.683594 55.316406 187.9375 " fill-opacity="1" fill-rule="nonzero"/><g clip-path="url(#a8ca63e1d9)"><path fill="#2e2e30" d="M 71.726562 189.609375 C 70.828125 189.523438 70.117188 189.675781 69.285156 189.179688 C 68.503906 188.71875 68.097656 188.039062 67.730469 187.238281 C 67.660156 187.085938 67.417969 187.167969 67.421875 187.324219 C 67.445312 188.320312 68.175781 189.179688 68.992188 189.675781 C 69.738281 190.132812 71.042969 190.527344 71.824219 189.957031 C 71.976562 189.847656 71.917969 189.628906 71.726562 189.609375 Z M 54.949219 192.714844 C 53.832031 193.121094 52.875 193.828125 51.707031 194.152344 C 50.46875 194.5 49.246094 194.488281 47.976562 194.488281 C 47.75 194.488281 47.699219 194.824219 47.921875 194.886719 C 49.195312 195.234375 50.609375 195.097656 51.875 194.761719 C 53.019531 194.457031 54.410156 193.941406 55.144531 192.964844 C 55.230469 192.847656 55.082031 192.664062 54.949219 192.714844 Z M 42.25 159.414062 C 41.46875 159.125 40.164062 159.035156 39.570312 159.746094 C 39.503906 159.828125 39.539062 159.980469 39.664062 159.972656 C 40.082031 159.957031 40.476562 159.792969 40.898438 159.785156 C 41.417969 159.777344 41.949219 159.910156 42.402344 160.160156 C 43.132812 160.5625 43.433594 161.699219 44.257812 161.859375 C 44.417969 161.890625 44.519531 161.742188 44.457031 161.597656 C 44.0625 160.671875 43.207031 159.765625 42.25 159.414062 Z M 35.445312 165.558594 C 34.199219 165.742188 33.339844 167.332031 33.058594 168.425781 C 32.800781 169.421875 32.703125 171.363281 33.746094 171.96875 C 33.886719 172.050781 34.070312 171.949219 34.070312 171.785156 C 34.066406 171.304688 33.8125 170.867188 33.726562 170.398438 C 33.613281 169.8125 33.644531 169.203125 33.78125 168.625 C 33.914062 168.074219 34.144531 167.550781 34.476562 167.089844 C 34.808594 166.628906 35.28125 166.3125 35.632812 165.878906 C 35.753906 165.722656 35.636719 165.53125 35.445312 165.558594 Z M 78.675781 190.277344 C 78.574219 190.070312 78.261719 190.214844 78.3125 190.429688 C 78.683594 191.953125 78.847656 193.445312 78.460938 194.988281 C 78.285156 195.699219 78.007812 196.378906 77.648438 197.015625 C 77.273438 197.671875 76.746094 198.21875 76.371094 198.867188 C 76.28125 199.027344 76.460938 199.191406 76.613281 199.109375 C 77.992188 198.390625 78.773438 196.476562 79.097656 195.046875 C 79.449219 193.480469 79.40625 191.730469 78.675781 190.277344 Z M 71.875 165.996094 C 70.625 164.304688 68.652344 163.199219 66.5625 163.027344 C 66.382812 163.011719 66.347656 163.296875 66.519531 163.335938 C 68.503906 163.824219 70.449219 164.789062 71.59375 166.546875 C 72.230469 167.523438 72.53125 168.640625 72.636719 169.789062 C 72.738281 170.890625 72.472656 172.09375 72.699219 173.160156 C 72.742188 173.347656 72.992188 173.316406 73.046875 173.160156 C 73.449219 172.023438 73.308594 170.425781 73.144531 169.246094 C 72.984375 168.070312 72.582031 166.953125 71.875 165.996094 Z M 63.863281 211.027344 C 62.605469 211.632812 61.429688 212.292969 60.042969 212.566406 C 58.632812 212.84375 57.15625 212.796875 55.761719 212.476562 C 55.507812 212.417969 55.40625 212.785156 55.652344 212.867188 C 58.308594 213.75 62.050781 213.441406 64.070312 211.296875 C 64.210938 211.152344 64.035156 210.945312 63.863281 211.027344 Z M 52.148438 212.269531 C 51.324219 211.765625 50.410156 211.449219 49.605469 210.902344 C 48.738281 210.320312 48.070312 209.5625 47.28125 208.898438 C 47.164062 208.804688 47 208.921875 47.070312 209.0625 C 47.882812 210.71875 50.214844 212.414062 52.066406 212.574219 C 52.234375 212.589844 52.28125 212.347656 52.148438 212.269531 Z M 33.550781 213.679688 C 31.257812 213.773438 29.585938 212.550781 28.941406 210.328125 C 28.265625 207.992188 28.890625 205.601562 28.703125 203.230469 C 28.683594 203.03125 28.375 202.957031 28.328125 203.179688 C 28.015625 204.636719 27.933594 206.21875 27.917969 207.707031 C 27.90625 208.972656 28.042969 210.238281 28.550781 211.410156 C 29.328125 213.203125 31.59375 215.167969 33.636719 213.988281 C 33.773438 213.90625 33.71875 213.671875 33.550781 213.679688 Z M 23.609375 190.410156 C 23.726562 190.515625 23.628906 190.71875 23.480469 190.71875 C 22.046875 190.71875 21.015625 189.101562 20.582031 187.910156 C 19.898438 186.023438 20.238281 184.019531 20.625 182.113281 C 20.675781 181.871094 21.085938 181.925781 21.0625 182.171875 C 20.894531 183.839844 20.652344 185.644531 21.125 187.28125 C 21.332031 187.988281 21.683594 188.667969 22.175781 189.222656 C 22.59375 189.695312 23.140625 189.996094 23.609375 190.410156 " fill-opacity="1" fill-rule="nonzero"/></g><path fill="#f6b737" d="M 41.269531 183.148438 C 40.597656 182.765625 39.816406 182.492188 39.050781 182.75 C 38.730469 182.855469 38.363281 183.089844 38.167969 183.398438 C 37.636719 184.085938 37.578125 185.1875 37.914062 186.050781 C 38.558594 187.703125 40.078125 187.828125 41.398438 186.835938 C 42.039062 186.351562 42.574219 185.671875 42.550781 184.828125 C 42.527344 184.019531 41.921875 183.519531 41.269531 183.148438 Z M 73.695312 184.441406 C 71.4375 181.480469 67.09375 184.957031 69.019531 187.5 C 70.796875 189.847656 75.785156 187.179688 73.695312 184.441406 Z M 42.628906 165.933594 C 41.296875 167.015625 39.117188 167.339844 38.296875 165.464844 C 37.867188 164.472656 38.128906 163.488281 38.757812 162.78125 C 39.5 161.253906 41.179688 160.535156 42.742188 161.707031 C 44.25 162.835938 44.015625 164.804688 42.628906 165.933594 " fill-opacity="1" fill-rule="nonzero"/><path fill="#ffffff" d="M 40.589844 183.410156 C 40.433594 183.402344 40.324219 183.632812 40.453125 183.738281 C 40.757812 183.980469 41.066406 184.140625 41.25 184.507812 C 41.410156 184.824219 41.371094 185.195312 41.519531 185.507812 C 41.554688 185.585938 41.660156 185.585938 41.714844 185.535156 C 42.050781 185.214844 41.878906 184.605469 41.6875 184.25 C 41.472656 183.851562 41.066406 183.429688 40.589844 183.410156 Z M 71.210938 184.40625 C 71.296875 184.339844 71.253906 184.179688 71.148438 184.160156 C 69.390625 183.808594 68.394531 187.375 70.609375 187.378906 C 70.742188 187.378906 70.789062 187.226562 70.710938 187.132812 C 70.554688 186.953125 70.363281 186.835938 70.195312 186.667969 C 69.878906 186.347656 69.90625 185.875 70.101562 185.488281 C 70.359375 184.972656 70.792969 184.757812 71.210938 184.40625 Z M 40.152344 162.132812 C 39.441406 162.601562 38.8125 163.199219 38.84375 164.125 C 38.867188 164.679688 39.242188 165.59375 39.929688 165.445312 C 40.039062 165.421875 40.066406 165.300781 40.027344 165.214844 C 39.804688 164.757812 39.398438 164.550781 39.417969 163.96875 C 39.441406 163.355469 39.882812 162.738281 40.3125 162.335938 C 40.421875 162.238281 40.277344 162.046875 40.152344 162.132812 Z M 52.195312 190.875 C 51.652344 190.933594 51.152344 191.191406 50.617188 191.300781 C 49.957031 191.433594 49.289062 191.472656 48.617188 191.425781 C 48.421875 191.414062 48.378906 191.726562 48.570312 191.769531 C 49.703125 192.011719 51.425781 192.0625 52.324219 191.191406 C 52.429688 191.089844 52.359375 190.859375 52.195312 190.875 Z M 47.628906 183.628906 C 46.824219 184.648438 46.335938 185.875 46.152344 187.15625 C 46.054688 187.828125 45.976562 188.5625 46.183594 189.21875 C 46.386719 189.855469 46.886719 190.304688 47.242188 190.851562 C 47.324219 190.980469 47.1875 191.109375 47.058594 191.089844 C 45.457031 190.8125 45.222656 188.730469 45.394531 187.4375 C 45.597656 185.875 46.125 184.339844 47.433594 183.378906 C 47.59375 183.257812 47.730469 183.5 47.628906 183.628906 " fill-opacity="1" fill-rule="nonzero"/></svg>